<?xml version="1.0" encoding="iso-8859-1"?>
<!-- Generator: Adobe Illustrator 19.0.0, SVG Export Plug-In . SVG Version: 6.00 Build 0)  -->
<svg version="1.1" id="Capa_1" xmlns="http://www.w3.org/2000/svg" xmlns:xlink="http://www.w3.org/1999/xlink" x="0px" y="0px"
	 viewBox="0 0 512.001 512.001" style="enable-background:new 0 0 512.001 512.001;" xml:space="preserve">
<g>
	<polygon style="fill:#FCC8A4;" points="194.499,441.999 133,441.999 71.499,441.999 10,441.999 10,502.001 502.001,502.001 
		502.001,441.999 440.502,441.999 378.998,441.999 317.499,441.999 256,441.999 	"/>
	<g>
		<rect x="133" y="308.97" style="fill:#A6D3FF;" width="61.5" height="133.03"/>
		<rect x="194.5" y="308.97" style="fill:#A6D3FF;" width="61.5" height="133.03"/>
		<rect x="256" y="308.97" style="fill:#A6D3FF;" width="61.5" height="133.03"/>
		<rect x="317.5" y="308.97" style="fill:#A6D3FF;" width="61.5" height="133.03"/>
		<polygon style="fill:#A6D3FF;" points="317.499,308.969 378.998,308.969 378.998,136.874 360.004,136.874 325.116,136.874 
			256,136.874 256,197.095 256,308.969 		"/>
		<polygon style="fill:#A6D3FF;" points="256,308.969 256,197.095 256,136.874 186.882,136.874 133,136.874 133,254.595 
			133,308.969 194.499,308.969 		"/>
	</g>
	<g>
		<path style="fill:#619DE5;" d="M186.882,136.874c0-38.174,30.945-69.119,69.118-69.119L255.998,10
			C188.349,10,133,65.347,133,132.998v3.876L186.882,136.874L186.882,136.874z"/>
		<path style="fill:#619DE5;" d="M256,67.755c-38.173,0-69.118,30.945-69.118,69.119H256V67.755z"/>
		<path style="fill:#619DE5;" d="M256,67.755c38.172,0,69.116,30.945,69.116,69.119h34.888h18.994v-3.876
			c0-67.651-55.347-122.998-123-122.998L256,67.755z"/>
		<path style="fill:#619DE5;" d="M325.116,136.874c0-38.174-30.944-69.119-69.116-69.119v69.119H325.116z"/>
	</g>
</g>
<g>
	<path style="fill:#000001;" d="M502.001,298.969H388.998V146.874h5.495c5.522,0,10-4.477,10-10s-4.478-10-10-10h-5.642
		C385.64,56.372,327.283,0.002,256.001,0H256l0,0c-0.001,0-0.001,0-0.001,0c-71.283,0-129.641,56.371-132.852,126.874h-5.642
		c-5.522,0-10,4.477-10,10s4.478,10,10,10H123V254.59c0,0.003,0,0.007,0,0.01v44.369H10c-5.523,0-10,4.477-10,10v133.03v60.002
		c0,5.523,4.477,10,10,10h492.001c5.522,0,10-4.477,10-10v-60.002v-133.03C512.001,303.446,507.523,298.969,502.001,298.969z
		 M492.001,431.999h-41.499v-113.03h41.499V431.999z M430.502,318.969v113.03h-41.504v-113.03H430.502z M266,431.999v-113.03h41.499
		v113.03H266z M204.499,431.999v-113.03H246v113.03H204.499z M143,431.999v-113.03h41.499v113.03H143z M327.499,318.969h41.499
		v113.03h-41.499V318.969z M368.998,298.969h-88.855l69.803-69.802c3.905-3.905,3.905-10.237,0-14.142
		c-3.904-3.905-10.236-3.905-14.143,0L266,284.826V197.1c0-0.004,0-0.007,0-0.011v-50.216h69.861l-19.017,19.017
		c-3.905,3.905-3.905,10.237,0,14.143c1.953,1.953,4.512,2.929,7.071,2.929c2.56,0,5.118-0.976,7.071-2.929l33.159-33.159h4.851
		v152.095H368.998z M246,126.874h-48.255c4.21-24.597,23.658-44.045,48.255-48.256V126.874z M266,78.619
		c24.596,4.211,44.043,23.659,48.253,48.255H266V78.619z M368.831,126.874h-8.822c-0.003,0-0.007,0-0.01,0h-25.537
		C329.944,91.233,301.64,62.928,266,58.41V20.447C321.631,25.35,365.817,70.73,368.831,126.874z M246,20.447V58.41
		c-35.641,4.518-63.945,32.824-68.464,68.464h-34.369C146.181,70.73,190.368,25.35,246,20.447z M143,258.737l33.157-33.158
		c3.905-3.905,3.905-10.237,0-14.142c-3.906-3.905-10.236-3.905-14.143,0L143,230.452v-83.578h103v46.079l-48.259,48.259
		c-3.905,3.905-3.905,10.237,0,14.142c1.953,1.953,4.512,2.929,7.071,2.929s5.118-0.977,7.071-2.929L246,221.237v77.731H143V258.737
		z M123,431.999H81.499v-113.03H123V431.999z M20,318.969h41.499v113.03H20V318.969z M492.001,492.001H20v-40.002h113h245.998
		h113.003L492.001,492.001L492.001,492.001z"/>
	<path style="fill:#000001;" d="M196.684,205.055c3.882-3.928,3.846-10.259-0.082-14.142c-3.929-3.883-10.26-3.847-14.143,0.082
		l-0.167,0.169c-3.882,3.928-3.846,10.259,0.082,14.142c1.949,1.927,4.49,2.888,7.03,2.888c2.578,0,5.156-0.991,7.112-2.97
		L196.684,205.055z"/>
	<path style="fill:#000001;" d="M296.528,186.205l-0.167,0.167c-3.905,3.905-3.905,10.237,0,14.143
		c1.953,1.953,4.512,2.929,7.071,2.929s5.118-0.976,7.071-2.929l0.167-0.167c3.905-3.905,3.905-10.237,0-14.143
		C306.765,182.3,300.435,182.3,296.528,186.205z"/>
</g>
<g>
</g>
<g>
</g>
<g>
</g>
<g>
</g>
<g>
</g>
<g>
</g>
<g>
</g>
<g>
</g>
<g>
</g>
<g>
</g>
<g>
</g>
<g>
</g>
<g>
</g>
<g>
</g>
<g>
</g>
</svg>
