<?xml version="1.0" encoding="iso-8859-1"?>
<!-- Generator: Adobe Illustrator 19.0.0, SVG Export Plug-In . SVG Version: 6.00 Build 0)  -->
<svg version="1.1" id="Capa_1" xmlns="http://www.w3.org/2000/svg" xmlns:xlink="http://www.w3.org/1999/xlink" x="0px" y="0px"
	 viewBox="0 0 436.906 436.906" style="enable-background:new 0 0 436.906 436.906;" xml:space="preserve">
<polygon style="fill:#777777;" points="102.399,256.001 6.826,256.001 34.132,160.428 "/>
<path d="M102.399,262.828H6.826c-2.144,0-4.161-1.007-5.449-2.717s-1.703-3.927-1.113-5.987l27.307-95.573
	c0.72-2.521,2.819-4.403,5.403-4.85c2.567-0.454,5.19,0.626,6.717,2.76l68.267,95.573c1.483,2.08,1.683,4.816,0.514,7.09
	C107.302,261.396,104.956,262.828,102.399,262.828z M15.876,249.175h73.257l-52.326-73.257L15.876,249.175z"/>
<polygon style="fill:#DDDDDD;" points="75.092,276.481 430.079,276.481 389.119,160.428 34.132,160.428 "/>
<path d="M430.079,283.308H75.092c-2.893,0-5.473-1.826-6.436-4.553l-40.96-116.053c-0.737-2.091-0.416-4.407,0.864-6.217
	c1.28-1.807,3.357-2.883,5.574-2.883h354.987c2.893,0,5.473,1.826,6.436,4.553l40.96,116.053c0.737,2.091,0.416,4.407-0.864,6.217
	C434.373,282.231,432.296,283.308,430.079,283.308z M79.922,269.655H420.43l-36.14-102.4H43.784L79.922,269.655z"/>
<path d="M92.543,200.417c0-0.87,0.027-1.717,0.077-2.546s0.217-1.567,0.5-2.214c0.283-0.647,0.734-1.167,1.35-1.56
	c0.613-0.393,1.49-0.59,2.62-0.59h10.003c2.487,0.119,4.707,0.647,6.666,1.574c0.829,0.406,1.644,0.906,2.441,1.504
	c0.8,0.594,1.514,1.333,2.14,2.21c0.623,0.881,1.13,1.917,1.514,3.106c0.384,1.193,0.577,2.577,0.577,4.154
	c0,0.323-0.031,0.753-0.09,1.29c-0.063,0.532-0.193,1.12-0.396,1.756c-0.2,0.637-0.473,1.3-0.817,1.987
	c-0.345,0.686-0.8,1.343-1.364,1.969c-0.567,0.626-1.26,1.2-2.077,1.727c-0.819,0.527-1.783,0.951-2.896,1.273
	c0.71,0.283,1.427,0.65,2.154,1.106c0.727,0.454,1.384,1.036,1.969,1.742c0.585,0.707,1.067,1.556,1.44,2.543
	c0.374,0.993,0.56,2.144,0.56,3.456v4.303c0,0.244,0.06,0.447,0.183,0.606c0.119,0.164,0.244,0.304,0.364,0.423
	c0.483,0.486,0.766,0.906,0.85,1.26c0.08,0.353,0.119,0.64,0.119,0.864c0,0.707-0.143,1.304-0.423,1.79
	c-0.283,0.483-0.654,0.877-1.106,1.179c-0.457,0.304-0.969,0.521-1.546,0.654c-0.577,0.13-1.167,0.196-1.773,0.196
	c-0.667,0-1.343-0.106-2.029-0.321c-0.686-0.21-1.314-0.521-1.881-0.923s-1.027-0.91-1.381-1.517
	c-0.353-0.608-0.531-1.304-0.531-2.091v-6.427c0-0.889-0.06-1.707-0.179-2.454c-0.123-0.749-0.357-1.396-0.7-1.94
	c-0.343-0.546-0.817-0.969-1.423-1.273s-1.393-0.457-2.364-0.457h-3.396v10.124c0,0.889-0.024,1.76-0.073,2.606
	c-0.053,0.85-0.22,1.603-0.5,2.26c-0.283,0.657-0.741,1.179-1.367,1.577c-0.626,0.393-1.514,0.59-2.666,0.59
	c-1.13,0-2.007-0.196-2.62-0.59c-0.616-0.396-1.067-0.92-1.35-1.577s-0.451-1.41-0.5-2.26c-0.049-0.847-0.077-1.717-0.077-2.606
	L92.543,200.417L92.543,200.417z M105.819,211.993c1.01-0.039,1.92-0.28,2.727-0.727c0.343-0.179,0.676-0.413,1-0.696
	s0.616-0.637,0.881-1.06c0.263-0.427,0.469-0.92,0.623-1.487c0.15-0.563,0.227-1.224,0.227-1.969c0-0.667-0.077-1.256-0.227-1.773
	c-0.154-0.514-0.35-0.963-0.594-1.347c-0.241-0.387-0.521-0.71-0.833-0.969c-0.314-0.263-0.63-0.476-0.954-0.637
	c-0.77-0.384-1.637-0.606-2.606-0.667h-4.367v11.334h4.123V211.993z"/>
<path d="M147.25,193.507c0.807,0,1.623,0.031,2.454,0.09c0.831,0.06,1.577,0.234,2.243,0.514c0.667,0.283,1.213,0.713,1.637,1.29
	c0.423,0.577,0.637,1.381,0.637,2.41s-0.213,1.833-0.637,2.41c-0.423,0.573-0.969,1.004-1.637,1.287
	c-0.667,0.283-1.413,0.457-2.243,0.517c-0.829,0.06-1.647,0.09-2.454,0.09h-7.217v8.243h3.82c0.807,0,1.623,0.027,2.441,0.077
	c0.819,0.05,1.546,0.213,2.183,0.486c0.637,0.27,1.157,0.686,1.56,1.241c0.403,0.556,0.606,1.329,0.606,2.319
	c0,1.01-0.203,1.79-0.606,2.333c-0.403,0.546-0.923,0.957-1.56,1.227c-0.637,0.273-1.364,0.437-2.183,0.486
	c-0.817,0.049-1.633,0.077-2.441,0.077h-3.82v8.73h7.217c0.807,0,1.623,0.031,2.454,0.09c0.831,0.06,1.577,0.227,2.243,0.5
	s1.213,0.696,1.637,1.273c0.423,0.577,0.637,1.37,0.637,2.381c0,1.05-0.217,1.867-0.654,2.454c-0.434,0.587-0.983,1.021-1.65,1.304
	s-1.417,0.457-2.243,0.517c-0.829,0.06-1.637,0.09-2.423,0.09h-11.884c-1.133,0-2.007-0.203-2.623-0.606s-1.063-0.934-1.347-1.591
	s-0.451-1.399-0.5-2.231c-0.049-0.826-0.077-1.676-0.077-2.543v-28.493c0-0.87,0.027-1.717,0.077-2.546
	c0.049-0.826,0.217-1.57,0.5-2.227s0.73-1.186,1.347-1.594c0.616-0.403,1.49-0.604,2.623-0.604h11.884V193.507z"/>
<path d="M172.253,204.173c0.02,0.85,0.266,1.613,0.744,2.29c0.473,0.676,1.101,1.316,1.881,1.923
	c0.777,0.606,1.661,1.196,2.65,1.773s2.007,1.183,3.046,1.819c1.039,0.637,2.057,1.33,3.046,2.077s1.881,1.597,2.666,2.546
	c0.79,0.951,1.427,2.021,1.91,3.21c0.486,1.193,0.748,2.546,0.79,4.064v0.244c0,1.657-0.203,3.099-0.606,4.333
	c-0.406,1.234-0.94,2.294-1.606,3.183c-0.666,0.889-1.447,1.62-2.333,2.196c-0.889,0.577-1.826,1.036-2.807,1.381
	c-0.98,0.343-1.969,0.587-2.97,0.727c-1,0.14-1.944,0.224-2.833,0.244h-0.304c-1.717,0-3.224-0.174-4.516-0.517
	c-1.292-0.343-2.403-0.804-3.333-1.381c-0.93-0.573-1.703-1.237-2.319-1.983c-0.616-0.746-1.106-1.521-1.469-2.319
	c-0.364-0.797-0.626-1.591-0.787-2.381c-0.164-0.787-0.244-1.524-0.244-2.21c0-0.71,0.123-1.323,0.364-1.85
	c0.244-0.527,0.563-0.957,0.957-1.29c0.394-0.333,0.847-0.58,1.364-0.741c0.517-0.164,1.056-0.244,1.62-0.244
	c0.527,0,1.067,0.08,1.623,0.244c0.556,0.16,1.06,0.406,1.517,0.741c0.454,0.333,0.826,0.759,1.12,1.273
	c0.294,0.517,0.451,1.116,0.469,1.804c0.039,1.517,0.384,2.553,1.031,3.106c0.647,0.556,1.577,0.836,2.79,0.836
	c0.606-0.02,1.167-0.097,1.679-0.23c0.517-0.13,0.957-0.364,1.319-0.696c0.362-0.333,0.65-0.777,0.864-1.333
	c0.213-0.556,0.321-1.256,0.321-2.106c0-1.05-0.241-2-0.713-2.85c-0.476-0.846-1.097-1.637-1.864-2.364
	c-0.77-0.727-1.65-1.42-2.637-2.077c-0.993-0.657-2.004-1.314-3.033-1.97s-2.036-1.343-3.017-2.06s-1.864-1.5-2.65-2.35
	c-0.79-0.85-1.42-1.787-1.896-2.819c-0.473-1.031-0.72-2.2-0.741-3.514v-0.486c0.02-2.161,0.307-3.959,0.864-5.393
	c0.556-1.437,1.374-2.577,2.454-3.427c1.084-0.85,2.41-1.451,3.987-1.804c1.577-0.353,3.383-0.531,5.427-0.531h0.787
	c1.86,0,3.437,0.2,4.729,0.606c1.294,0.403,2.367,0.92,3.227,1.543c0.86,0.626,1.536,1.336,2.029,2.123
	c0.497,0.787,0.867,1.567,1.106,2.333c0.244,0.77,0.396,1.486,0.457,2.154s0.09,1.2,0.09,1.606c0,0.606-0.116,1.157-0.35,1.65
	c-0.23,0.497-0.543,0.916-0.937,1.26c-0.396,0.343-0.86,0.609-1.396,0.804c-0.532,0.189-1.116,0.287-1.742,0.287
	c-0.483,0-0.969-0.097-1.454-0.287c-0.486-0.193-0.92-0.44-1.304-0.744c-0.384-0.304-0.696-0.654-0.94-1.046
	c-0.244-0.393-0.364-0.794-0.364-1.196c0-1.657-0.3-2.809-0.893-3.456c-0.597-0.647-1.469-0.969-2.623-0.969
	c-0.546,0-1.077,0.031-1.591,0.094c-0.517,0.06-0.969,0.227-1.364,0.5c-0.396,0.27-0.71,0.689-0.94,1.256
	C172.369,202.347,172.253,203.144,172.253,204.173z"/>
<path d="M215.319,193.507c0.807,0,1.623,0.031,2.454,0.09c0.831,0.06,1.577,0.234,2.243,0.514c0.667,0.283,1.213,0.713,1.637,1.29
	c0.423,0.577,0.637,1.381,0.637,2.41s-0.213,1.833-0.637,2.41c-0.423,0.573-0.969,1.004-1.637,1.287
	c-0.667,0.283-1.413,0.457-2.243,0.517c-0.829,0.06-1.647,0.09-2.454,0.09h-7.218v8.243h3.82c0.807,0,1.623,0.027,2.441,0.077
	c0.819,0.05,1.546,0.213,2.183,0.486c0.637,0.27,1.157,0.686,1.56,1.241c0.403,0.556,0.606,1.329,0.606,2.319
	c0,1.01-0.203,1.79-0.606,2.333c-0.403,0.546-0.923,0.957-1.56,1.227c-0.637,0.273-1.364,0.437-2.183,0.486
	c-0.817,0.049-1.633,0.077-2.441,0.077h-3.82v8.73h7.218c0.807,0,1.623,0.031,2.454,0.09c0.831,0.06,1.577,0.227,2.243,0.5
	c0.666,0.273,1.213,0.696,1.637,1.273c0.423,0.577,0.637,1.37,0.637,2.381c0,1.05-0.217,1.867-0.654,2.454
	c-0.433,0.587-0.983,1.021-1.65,1.304c-0.667,0.283-1.417,0.457-2.243,0.517c-0.829,0.06-1.637,0.09-2.423,0.09h-11.884
	c-1.133,0-2.007-0.203-2.623-0.606s-1.063-0.934-1.347-1.591s-0.451-1.399-0.5-2.231c-0.05-0.826-0.077-1.676-0.077-2.543v-28.493
	c0-0.87,0.027-1.717,0.077-2.546c0.049-0.826,0.217-1.57,0.5-2.227s0.73-1.186,1.347-1.594c0.616-0.403,1.49-0.604,2.623-0.604
	h11.883V193.507z"/>
<path d="M232.56,200.417c0-0.87,0.027-1.717,0.077-2.546c0.049-0.829,0.217-1.567,0.5-2.214c0.283-0.647,0.734-1.167,1.35-1.56
	c0.613-0.393,1.49-0.59,2.62-0.59h10.003c2.487,0.119,4.707,0.647,6.666,1.574c0.829,0.406,1.644,0.906,2.441,1.504
	c0.8,0.594,1.514,1.333,2.14,2.21c0.623,0.881,1.13,1.917,1.514,3.106c0.384,1.193,0.577,2.577,0.577,4.154
	c0,0.323-0.031,0.753-0.09,1.29c-0.063,0.532-0.193,1.12-0.396,1.756c-0.2,0.637-0.473,1.3-0.818,1.987s-0.8,1.343-1.364,1.969
	c-0.567,0.626-1.26,1.2-2.077,1.727c-0.819,0.527-1.783,0.951-2.896,1.273c0.71,0.283,1.427,0.65,2.154,1.106
	c0.727,0.454,1.384,1.036,1.97,1.742c0.585,0.707,1.067,1.556,1.44,2.543c0.374,0.993,0.56,2.144,0.56,3.456v4.303
	c0,0.244,0.06,0.447,0.183,0.606c0.119,0.164,0.244,0.304,0.364,0.423c0.483,0.486,0.766,0.906,0.85,1.26
	c0.08,0.353,0.119,0.64,0.119,0.864c0,0.707-0.143,1.304-0.423,1.79c-0.283,0.483-0.654,0.877-1.106,1.179
	c-0.457,0.304-0.969,0.521-1.546,0.654c-0.577,0.13-1.167,0.196-1.773,0.196c-0.667,0-1.343-0.106-2.029-0.321
	c-0.686-0.21-1.314-0.521-1.881-0.923c-0.567-0.403-1.027-0.91-1.381-1.517c-0.353-0.608-0.531-1.304-0.531-2.091v-6.427
	c0-0.889-0.06-1.707-0.179-2.454c-0.123-0.749-0.357-1.396-0.7-1.94c-0.343-0.546-0.818-0.969-1.423-1.273
	c-0.606-0.304-1.393-0.457-2.364-0.457h-3.396v10.124c0,0.889-0.024,1.76-0.073,2.606c-0.053,0.85-0.22,1.603-0.5,2.26
	c-0.283,0.657-0.741,1.179-1.367,1.577c-0.626,0.393-1.514,0.59-2.666,0.59c-1.13,0-2.007-0.196-2.62-0.59
	c-0.616-0.396-1.067-0.92-1.35-1.577s-0.451-1.41-0.5-2.26c-0.05-0.847-0.077-1.717-0.077-2.606V200.417z M245.836,211.993
	c1.01-0.039,1.92-0.28,2.727-0.727c0.343-0.179,0.676-0.413,1-0.696c0.324-0.283,0.616-0.637,0.881-1.06
	c0.263-0.427,0.469-0.92,0.623-1.487c0.15-0.563,0.227-1.224,0.227-1.969c0-0.667-0.077-1.256-0.227-1.773
	c-0.154-0.514-0.35-0.963-0.594-1.347c-0.241-0.387-0.521-0.71-0.833-0.969c-0.314-0.263-0.63-0.476-0.954-0.637
	c-0.77-0.384-1.637-0.606-2.606-0.667h-4.367v11.334h4.123V211.993z"/>
<path d="M292.179,193.507c0.584,0,1.15,0.101,1.696,0.3c0.546,0.203,1.024,0.476,1.44,0.819c0.413,0.343,0.744,0.753,0.983,1.227
	c0.244,0.476,0.363,0.986,0.363,1.529c0,0.263-0.014,0.514-0.043,0.744c-0.031,0.234-0.067,0.44-0.106,0.623
	c-0.06,0.22-0.109,0.413-0.154,0.573c-1.374,5.396-2.807,10.897-4.302,16.507c-1.493,5.606-2.93,11.097-4.302,16.473
	c-0.304,0.686-0.707,1.294-1.213,1.816c-0.423,0.466-0.973,0.887-1.65,1.26c-0.678,0.372-1.521,0.56-2.533,0.56h-0.969
	c-1.01,0-1.857-0.186-2.543-0.56c-0.69-0.374-1.244-0.794-1.667-1.26c-0.507-0.524-0.899-1.13-1.183-1.816l-8.61-32.98
	c-0.06-0.16-0.109-0.353-0.15-0.573c-0.101-0.406-0.154-0.86-0.154-1.367c0-0.543,0.116-1.053,0.35-1.529
	c0.234-0.473,0.55-0.884,0.954-1.227c0.406-0.343,0.881-0.616,1.427-0.819c0.546-0.2,1.13-0.3,1.756-0.3
	c0.969,0,1.753,0.21,2.35,0.637c0.597,0.423,1.067,0.896,1.41,1.423c0.384,0.606,0.667,1.294,0.846,2.06
	c0.244,0.969,0.507,2.067,0.79,3.29c0.283,1.224,0.567,2.49,0.847,3.804c0.283,1.314,0.573,2.654,0.867,4.018
	c0.29,1.364,0.57,2.683,0.833,3.956c0.626,2.99,1.249,6.05,1.877,9.184h0.969c0.686-3.133,1.357-6.193,2.004-9.184
	c0.259-1.273,0.539-2.594,0.833-3.956c0.29-1.364,0.58-2.703,0.864-4.018c0.283-1.314,0.553-2.58,0.817-3.804
	c0.265-1.224,0.497-2.319,0.696-3.29c0.203-0.766,0.497-1.454,0.881-2.06c0.343-0.527,0.811-1,1.393-1.423
	C290.429,193.717,291.209,193.507,292.179,193.507z"/>
<path d="M321.303,193.507c0.807,0,1.623,0.031,2.454,0.09c0.831,0.06,1.577,0.234,2.243,0.514c0.667,0.283,1.213,0.713,1.637,1.29
	c0.423,0.577,0.637,1.381,0.637,2.41s-0.213,1.833-0.637,2.41c-0.423,0.573-0.969,1.004-1.637,1.287s-1.413,0.457-2.243,0.517
	c-0.829,0.06-1.647,0.09-2.454,0.09h-7.217v8.243h3.82c0.807,0,1.623,0.027,2.441,0.077c0.819,0.05,1.546,0.213,2.183,0.486
	c0.637,0.27,1.157,0.686,1.56,1.241c0.403,0.556,0.606,1.329,0.606,2.319c0,1.01-0.203,1.79-0.606,2.333
	c-0.403,0.546-0.923,0.957-1.56,1.227c-0.637,0.273-1.364,0.437-2.183,0.486c-0.818,0.049-1.633,0.077-2.441,0.077h-3.82v8.73h7.217
	c0.807,0,1.623,0.031,2.454,0.09c0.831,0.06,1.577,0.227,2.243,0.5c0.666,0.273,1.213,0.696,1.637,1.273
	c0.423,0.577,0.637,1.37,0.637,2.381c0,1.05-0.217,1.867-0.654,2.454c-0.434,0.587-0.983,1.021-1.65,1.304s-1.417,0.457-2.243,0.517
	c-0.829,0.06-1.637,0.09-2.423,0.09h-11.884c-1.133,0-2.007-0.203-2.623-0.606s-1.063-0.934-1.347-1.591
	c-0.283-0.657-0.451-1.399-0.5-2.231c-0.049-0.826-0.077-1.676-0.077-2.543v-28.493c0-0.87,0.027-1.717,0.077-2.546
	c0.05-0.826,0.217-1.57,0.5-2.227c0.283-0.657,0.73-1.186,1.347-1.594c0.616-0.403,1.49-0.604,2.623-0.604h11.883V193.507z"/>
<path d="M351.702,193.507c1.836,0,3.55,0.23,5.137,0.696c1.587,0.463,2.97,1.157,4.154,2.077c1.179,0.92,2.109,2.063,2.787,3.441
	c0.676,1.374,1.017,2.98,1.017,4.816v18.794c0,1.577-0.174,2.966-0.517,4.169c-0.343,1.2-0.794,2.239-1.347,3.12
	c-0.556,0.881-1.19,1.626-1.896,2.243c-0.707,0.616-1.423,1.116-2.15,1.5c-1.741,0.93-3.71,1.458-5.91,1.577h-10.063
	c-1.154,0-2.043-0.196-2.669-0.59c-0.626-0.396-1.08-0.92-1.364-1.577c-0.283-0.657-0.451-1.399-0.5-2.231
	c-0.049-0.826-0.077-1.686-0.077-2.574v-28.553c0-0.87,0.027-1.717,0.077-2.546s0.217-1.567,0.5-2.214
	c0.283-0.647,0.737-1.167,1.364-1.56c0.626-0.393,1.517-0.59,2.669-0.59h8.788V193.507z M347.519,200.598v28.129h3.941
	c0.867-0.039,1.647-0.244,2.333-0.606c0.283-0.14,0.567-0.333,0.85-0.577c0.283-0.244,0.532-0.531,0.756-0.864
	c0.224-0.333,0.399-0.734,0.531-1.196c0.133-0.466,0.196-1,0.196-1.606v-17.884c0-0.667-0.063-1.256-0.196-1.773
	c-0.13-0.517-0.307-0.963-0.531-1.35c-0.224-0.384-0.473-0.707-0.756-0.969c-0.283-0.259-0.567-0.473-0.85-0.637
	c-0.686-0.384-1.466-0.604-2.333-0.667H347.519z"/>
<g>
</g>
<g>
</g>
<g>
</g>
<g>
</g>
<g>
</g>
<g>
</g>
<g>
</g>
<g>
</g>
<g>
</g>
<g>
</g>
<g>
</g>
<g>
</g>
<g>
</g>
<g>
</g>
<g>
</g>
</svg>
