<?xml version="1.0" encoding="utf-8"?>
<!-- Generator: Adobe Illustrator 23.0.1, SVG Export Plug-In . SVG Version: 6.00 Build 0)  -->
<svg version="1.1" id="Layer_1" xmlns="http://www.w3.org/2000/svg" xmlns:xlink="http://www.w3.org/1999/xlink" x="0px" y="0px"
	 viewBox="0 0 1280 1024" style="enable-background:new 0 0 1280 1024;" xml:space="preserve">
<style type="text/css">
	.st0{fill:#FFFFFF;}
	.st1{fill:#E2D3D9;}
	.st2{fill:none;stroke:#000000;stroke-width:3;stroke-miterlimit:10;}
	.st3{fill:none;stroke:#000000;stroke-miterlimit:10;}
	.st4{fill:none;stroke:#000000;stroke-width:3;stroke-linecap:round;stroke-miterlimit:10;}
	.st5{fill:#0A0004;stroke:#000000;stroke-width:3;stroke-miterlimit:10;}
	.st6{fill:none;stroke:#FFFFFF;stroke-width:3;stroke-miterlimit:10;}
</style>
<g>
	<path class="st0" d="M47.41,1006.88c-14.43,0-26.17-11.74-26.17-26.17V425.14c0-14.43,11.74-26.17,26.17-26.17h297.65
		c14.43,0,26.17,11.74,26.17,26.17v555.57c0,14.43-11.74,26.17-26.17,26.17H47.41z"/>
	<path d="M345.06,401.96c12.78,0,23.17,10.4,23.17,23.17v555.57c0,12.78-10.4,23.17-23.17,23.17H47.41
		c-12.78,0-23.17-10.4-23.17-23.17V425.14c0-12.78,10.4-23.17,23.17-23.17H345.06 M345.06,395.96H47.41
		c-16.05,0-29.17,13.13-29.17,29.17v555.57c0,16.05,13.13,29.17,29.17,29.17h297.65c16.05,0,29.17-13.13,29.17-29.17V425.14
		C374.24,409.09,361.11,395.96,345.06,395.96L345.06,395.96z"/>
</g>
<path class="st1" d="M328.38,578.44h-267c-6.6,0-12-5.4-12-12v-142c0-6.6,5.4-12,12-12h267c6.6,0,12,5.4,12,12v142
	C340.38,573.04,334.98,578.44,328.38,578.44z"/>
<path class="st1" d="M330.82,988.91h-267c-6.6,0-12-5.4-12-12v-142c0-6.6,5.4-12,12-12h267c6.6,0,12,5.4,12,12v142
	C342.82,983.51,337.42,988.91,330.82,988.91z"/>
<path class="st2" d="M288.16,469.4"/>
<path class="st2" d="M136.42,455.95"/>
<path class="st3" d="M267.67,456.64"/>
<path class="st3" d="M153.97,455.91"/>
<path class="st4" d="M94.32,445.99l-0.65,97.17c0,0,14.51-17.67,15.73-45.84c0.04-0.91-0.61-15.28-1.55-15.29l-7.45-0.08"/>
<line class="st4" x1="289.77" y1="543.15" x2="290" y2="508.56"/>
<line class="st4" x1="290.07" y1="498.39" x2="290.74" y2="445.99"/>
<path class="st4" d="M300.36,544.9l0.21-31.99c0.01-1.68-0.6-3.3-1.71-4.59l-8.79-10.12"/>
<path class="st4" d="M279.15,544.77l0.21-31.99c0.01-1.68,0.64-3.29,1.78-4.57l8.92-10.01"/>
<circle class="st5" cx="194.88" cy="495.44" r="69.5"/>
<ellipse class="st6" cx="194.88" cy="495.44" rx="58.5" ry="60.21"/>
<path class="st2" d="M104.19,934.88"/>
<path class="st2" d="M256.01,947.43"/>
<path class="st3" d="M124.75,947.53"/>
<path class="st3" d="M238.45,947.57"/>
<path class="st4" d="M298.17,957.13l0.06-97.17c0,0-14.41,17.75-15.45,45.93c-0.03,0.91,0.7,15.28,1.64,15.28l7.45,0.04"/>
<line class="st4" x1="102.14" y1="861.15" x2="102.12" y2="895.73"/>
<line class="st4" x1="102.11" y1="905.91" x2="101.75" y2="958.31"/>
<path class="st4" d="M91.54,859.46l-0.02,32c0,1.68,0.62,3.3,1.74,4.58l8.85,10.07"/>
<path class="st4" d="M112.74,859.46l-0.02,32c0,1.68-0.62,3.3-1.75,4.58l-8.86,10.07"/>
<circle class="st5" cx="197.32" cy="908.28" r="69.5"/>
<ellipse transform="matrix(1 -6.009384e-03 6.009384e-03 1 -5.4547 1.2021)" class="st6" cx="197.32" cy="908.28" rx="58.5" ry="60.21"/>
</svg>