<?xml version="1.0"?>
<svg xmlns="http://www.w3.org/2000/svg" id="icons" enable-background="new 0 0 64 64" height="512px" viewBox="0 0 64 64" width="512px" class=""><g><path d="m12.995 20.006h12.01c0 1.66-1.35 3-3 3h-6.01c-1.65 0-3-1.34-3-3z" fill="#e6e9ed" data-original="#E6E9ED" class="" style="fill:#5F7D95" data-old_color="#e6e9ed"/><path d="m32.995 15.996c.55 0 1 .45 1 1v6.011c0 .55-.45 1-1 1h-2c-.55 0-1-.45-1-1v-6.011c0-.55.45-1 1-1z" fill="#ed5565" data-original="#ED5565" class="" style="fill:#ED5565"/><path d="m38.995 20.006h12.01c0 1.66-1.35 3-3 3h-6.01c-1.65 0-3-1.34-3-3z" fill="#e6e9ed" data-original="#E6E9ED" class="" style="fill:#5F7D95" data-old_color="#e6e9ed"/><path d="m4.005 37.996h8.99v3h-8.99z" fill="#efb381" data-original="#EFB381" class="" style="fill:#ED5565" data-old_color="#efb381"/><path d="m4.005 34.996h8.99v3h-8.99z" fill="#ed5565" data-original="#ED5565" class="" style="fill:#ED5565"/><path d="m4.005 49.996c0 .55-.45 1-1 1h-1c-.55 0-1-.45-1-1v-33c0-.55.45-1 1-1h1c.55 0 1 .45 1 1z" fill="#f7c292" data-original="#F7C292" class="" style="fill:#ED5565" data-old_color="#f7c292"/><path d="m61.995 15.996c.55 0 1 .45 1 1v33c0 .55-.45 1-1 1h-1c-.55 0-1-.45-1-1v-33c0-.55.45-1 1-1z" fill="#f7c292" data-original="#F7C292" class="" style="fill:#ED5565" data-old_color="#f7c292"/><path d="m16.005 26.006h32v4.99h-32z" fill="#efb381" data-original="#EFB381" class="" style="fill:#ED5565" data-old_color="#efb381"/><path d="m51.024 34.996h8.971v3h-8.971z" fill="#ed5565" data-original="#ED5565" class="" style="fill:#ED5565"/><path d="m51.024 37.996h8.971v3h-8.971z" fill="#efb381" data-original="#EFB381" class="" style="fill:#ED5565" data-old_color="#efb381"/><path d="m16.005 49.996c0 .55-.45 1-1 1h-1.01c-.55 0-1-.45-1-1v-24.991c0-.55.45-1 1-1h1.01c.55 0 1 .45 1 1z" fill="#f7c292" data-original="#F7C292" class="" style="fill:#ED5565" data-old_color="#f7c292"/><path d="m51.024 49.996c0 .55-.45 1-1 1h-1.02c-.55 0-1-.45-1-1v-24.991c0-.55.45-1 1-1h1.02c.55 0 1 .45 1 1z" fill="#f7c292" data-original="#F7C292" class="" style="fill:#ED5565" data-old_color="#f7c292"/><path d="m51.985 23.006c.55 0 1 .45 1 1v1c0 .55-.441 1-.98 1s-39.46 0-40.01 0c-.55 0-1-.45-1-1v-1c0-.55.45-1 1-1z" fill="#ffd2a6" data-original="#FFD2A6" class="" style="fill:#ED5565" data-old_color="#ffd2a6"/><path d="m31.997 16.004c-.553 0-1-.448-1-1v-1c0-.553.447-1 1-1s1 .447 1 1v1c0 .552-.447 1-1 1z" fill="#ffce54" data-original="#FFCE54" class="" style="fill:#ED5565" data-old_color="#ffce54"/><g fill="#f5f7fa"><path d="m26.001 21.003h-14c-.553 0-1-.447-1-1 0-.552.447-1 1-1h14c.553 0 1 .448 1 1 0 .553-.447 1-1 1z" data-original="#F5F7FA" class="active-path" style="fill:#5F7D95" data-old_color="#F5F7FA"/><path d="m52.001 21.003h-14c-.553 0-1-.447-1-1 0-.552.447-1 1-1h14c.553 0 1 .448 1 1 0 .553-.447 1-1 1z" data-original="#F5F7FA" class="active-path" style="fill:#5F7D95" data-old_color="#F5F7FA"/></g></g> </svg>
